<?xml version="1.0" encoding="utf-8"?>
<!-- Generator: Adobe Illustrator 18.0.0, SVG Export Plug-In . SVG Version: 6.00 Build 0)  -->
<!DOCTYPE svg PUBLIC "-//W3C//DTD SVG 1.1//EN" "http://www.w3.org/Graphics/SVG/1.1/DTD/svg11.dtd">
<svg version="1.1" id="Layer_1" xmlns="http://www.w3.org/2000/svg" xmlns:xlink="http://www.w3.org/1999/xlink" x="0px" y="0px"
	 viewBox="0 0 612 792" enable-background="new 0 0 612 792" xml:space="preserve">
<text transform="matrix(1 0 0 1 231 149.1816)" font-family="'OpenSans'" font-size="12">Experience</text>
<text transform="matrix(1 0 0 1 231 185.1816)" font-family="'OpenSans-Light'" font-size="10">Built module using Articulate Storyline with custom interactive assets for IFC</text>
<text transform="matrix(1 0 0 1 231 198.1816)" font-family="'OpenSans-Light'" font-size="10">Independently designed and built course on Best Practices of Teaching</text>
<text transform="matrix(1 0 0 1 231 224.1816)" font-family="'OpenSans'" font-size="10">Human Factors Associate, UL- Wiklund Research and Design</text>
<text transform="matrix(1 0 0 1 231 236.1816)" font-family="'OpenSans-Light'" font-size="10">Summer 2015, Concord, MA</text>
<text transform="matrix(1 0 0 1 231 248.1816)" font-family="'OpenSans-Light'" font-size="10">Observed, coded and analyzed three usability tests</text>
<text transform="matrix(1 0 0 1 231 260.1816)" font-family="'OpenSans-Light'" font-size="10">Led Known Problems Analysis of IVUS/ OCT imaging system</text>
<text transform="matrix(1 0 0 1 231 272.1816)" font-family="'OpenSans-Light'" font-size="10">Contributed to Formative and Summative FDA Human Factors reports</text>
<text transform="matrix(1 0 0 1 231 296.1816)" font-family="'OpenSans'" font-size="10">Teaching Fellow, Breakthrough New York</text>
<text transform="matrix(1 0 0 1 231 308.1816)" font-family="'OpenSans-Light'" font-size="10">Summer 2014, Brooklyn, NY</text>
<text transform="matrix(1 0 0 1 231 320.1816)" font-family="'OpenSans-Light'" font-size="10">Independently taught seventh grade writing </text>
<text transform="matrix(1 0 0 1 231 332.1816)" font-family="'OpenSans-Light'" font-size="10">50 high-potential, underserved students for 6 weeks</text>
<text transform="matrix(1 0 0 1 231 356.1816)" font-family="'OpenSans'" font-size="10">Research Assistant, Learning Media Research Center, HCII</text>
<text transform="matrix(1 0 0 1 231 368.1816)" font-family="'OpenSans-Light'" font-size="10">Fall 2015-Present, Pittsburgh, PA</text>
<text transform="matrix(1 0 0 1 231 380.1816)" font-family="'OpenSans-Light'" font-size="10">Conducted rapid- assessment of pilot technology in schools </text>
<text transform="matrix(1 0 0 1 231 392.1816)" font-family="'OpenSans-Light'" font-size="10">Worked with school administrators, teachers and students to assess </text>
<text transform="matrix(1 0 0 1 231 404.1816)" font-family="'OpenSans-Light'" font-size="10">tools and produce reports for decision makers</text>
<text transform="matrix(1 0 0 1 231 428.1816)" font-family="'OpenSans'" font-size="10">Research Assistant, French One Online Data Analysis, LTI</text>
<text transform="matrix(1 0 0 1 231 440.1816)" font-family="'OpenSans-Light'" font-size="10">Fall 2014, Pittsburgh, PA</text>
<text transform="matrix(1 0 0 1 231 452.1816)" font-family="'OpenSans-Light'" font-size="10">Conducted analysis of French One online course using Datashop, over </text>
<text transform="matrix(1 0 0 1 231 464.1816)" font-family="'OpenSans-Light'" font-size="10">500,000 transactions, observational studies of student utilization. </text>
<text transform="matrix(1 0 0 1 231 476.1816)" font-family="'OpenSans-Light'" font-size="10">Co-authored published paper - desciptive analysis.</text>
<text transform="matrix(1 0 0 1 231 502.582)" font-family="'OpenSans'" font-size="12">Leadership</text>
<text transform="matrix(1 0 0 1 231 514.582)" font-family="'OpenSans'" font-size="10">President, CMU Educational Technology Club</text>
<text transform="matrix(1 0 0 1 231 526.582)" font-family="'OpenSans-Light'" font-size="10">Fall 2014- Present, Pittsburgh, PA</text>
<text transform="matrix(1 0 0 1 231 538.582)" font-family="'OpenSans-Light'" font-size="10">Founding member of interdisciplinary EdTech club</text>
<text transform="matrix(1 0 0 1 231 550.582)" font-family="'OpenSans-Light'" font-size="10">Over 100 members after two years</text>
<text transform="matrix(1 0 0 1 231 562.582)" font-family="'OpenSans-Light'" font-size="10">Created web resource for education initiatives on campus</text>
<text transform="matrix(1 0 0 1 231 574.582)" font-family="'OpenSans-Light'" font-size="10">Connected members with faculty for research/ projects, hosted pan</text>
<text transform="matrix(1 0 0 1 533.9346 574.582)" font-family="'OpenSans-Light'" font-size="10">-</text>
<text transform="matrix(1 0 0 1 231 586.582)" font-family="'OpenSans-Light'" font-size="10">els of EdTech leaders</text>
<text transform="matrix(1 0 0 1 231 610.582)" font-family="'OpenSans'" font-size="10">Dietrich General Education Design Committee</text>
<text transform="matrix(1 0 0 1 231 622.582)" font-family="'OpenSans-Light'" font-size="10">Fall 2016- Present, Pittsburgh, PA</text>
<text transform="matrix(1 0 0 1 231 634.582)" font-family="'OpenSans-Light'" font-size="10">Student representative on facualty led re-design general education re</text>
<text transform="matrix(1 0 0 1 541.9375 634.582)" font-family="'OpenSans-Light'" font-size="10">-</text>
<text transform="matrix(1 0 0 1 231 646.582)" font-family="'OpenSans-Light'" font-size="10">design committee. Involved in focus groups, analyzing student surveys </text>
<text transform="matrix(1 0 0 1 231 658.582)" font-family="'OpenSans-Light'" font-size="10">and envisioning new educational system design.  </text>
<text transform="matrix(1 0 0 1 231 682.582)" font-family="'OpenSans'" font-size="10">Booth Chair, Delta Delta Delta- Alpha Tau, CMU</text>
<text transform="matrix(1 0 0 1 231 694.582)" font-family="'OpenSans-Light'" font-size="10">Spring 2014- Present, Pittsburgh, PA</text>
<text transform="matrix(1 0 0 1 231 706.582)" font-family="'OpenSans-Light'" font-size="10">Leading 90 women over a four-month period designing and building </text>
<text transform="matrix(1 0 0 1 231 718.582)" font-family="'OpenSans-Light'" font-size="10">interactive 20’x15’x18’ booth. Won 3rd place Spring 2015</text>
<text transform="matrix(1 0 0 1 230 94.1284)" font-family="'OpenSans'" font-size="25">Sarah </text>
<text transform="matrix(1 0 0 1 303.5718 94.1284)" font-family="'OpenSans-Light'" font-size="25">Moss-Horwitz</text>
<text transform="matrix(1 0 0 1 73 237.6816)" font-family="'OpenSans'" font-size="12">Skills</text>
<text transform="matrix(1 0 0 1 231.25 118.1514)" font-family="'OpenSans-Light'" font-size="10">sarahmh.com      smosshorwitz@gmail.com     413-588-8646</text>
<text transform="matrix(1 0 0 1 73 254.396)" font-family="'OpenSans-Light'" font-size="10">Data Analysis </text>
<text transform="matrix(1 0 0 1 73 268.396)" font-family="'OpenSans-Light'" font-size="10">Interface design</text>
<text transform="matrix(1 0 0 1 73 282.396)" font-family="'OpenSans-Light'" font-size="10">Market Research</text>
<text transform="matrix(1 0 0 1 73 296.396)" font-family="'OpenSans-Light'" font-size="10">Project Management</text>
<text transform="matrix(1 0 0 1 73 310.396)" font-family="'OpenSans-Light'" font-size="10">Instructional Design</text>
<text transform="matrix(1 0 0 1 73 324.396)" font-family="'OpenSans-Light'" font-size="10">Usability testing </text>
<text transform="matrix(1 0 0 1 73 338.396)" font-family="'OpenSans-Light'" font-size="10">Teaching</text>
<text transform="matrix(1 0 0 1 74 365.3857)" font-family="'OpenSans'" font-size="10">Design</text>
<text transform="matrix(1 0 0 1 74 379.3857)" font-family="'OpenSans-Light'" font-size="10">Illustrator    </text>
<text transform="matrix(1 0 0 1 74 393.3857)" font-family="'OpenSans-Light'" font-size="10">InDesign </text>
<text transform="matrix(1 0 0 1 74 407.3857)" font-family="'OpenSans-Light'" font-size="10">Photoshop    </text>
<text transform="matrix(1 0 0 1 74 421.3857)" font-family="'OpenSans-Light'" font-size="10">Audition   </text>
<text transform="matrix(1 0 0 1 74 435.3857)" font-family="'OpenSans-Light'" font-size="10">Premiere Pro      </text>
<path d="M78.4,446.9h-2.9l-1,2.5H74l2.9-7.2h0.3l2.8,7.2h-0.6L78.4,446.9z M75.7,446.4h2.6l-1-2.6c-0.1-0.2-0.2-0.5-0.3-0.8
	c-0.1,0.3-0.2,0.6-0.3,0.8L75.7,446.4z M82.9,444.5h-1.2v4.9h-0.5v-4.9h-1v-0.3l1-0.2v-0.4c0-0.7,0.1-1.1,0.4-1.4
	c0.2-0.3,0.6-0.5,1.2-0.5c0.3,0,0.6,0,0.9,0.1l-0.1,0.4c-0.3-0.1-0.5-0.1-0.8-0.1c-0.4,0-0.6,0.1-0.8,0.3c-0.2,0.2-0.2,0.6-0.2,1.1
	v0.5h1.2V444.5z M85.3,449.1c0.3,0,0.6,0,0.8-0.1v0.4c-0.2,0.1-0.5,0.1-0.8,0.1c-0.5,0-0.8-0.1-1-0.4c-0.2-0.3-0.3-0.6-0.3-1.2v-3.4
	h-0.8v-0.3l0.8-0.2l0.2-1.2h0.2v1.3H86v0.4h-1.6v3.4c0,0.4,0.1,0.7,0.2,0.9C84.8,449,85,449.1,85.3,449.1z M89.4,449.5
	c-0.8,0-1.4-0.2-1.8-0.7c-0.4-0.5-0.6-1.1-0.6-2c0-0.8,0.2-1.5,0.6-2c0.4-0.5,1-0.8,1.7-0.8c0.6,0,1.1,0.2,1.5,0.7
	c0.4,0.4,0.5,1,0.5,1.8v0.4h-3.8c0,0.7,0.2,1.3,0.5,1.7c0.3,0.4,0.8,0.6,1.4,0.6c0.3,0,0.6,0,0.8-0.1c0.2,0,0.5-0.1,0.9-0.3v0.4
	c-0.3,0.1-0.6,0.2-0.8,0.3S89.7,449.5,89.4,449.5z M89.2,444.4c-0.5,0-0.9,0.2-1.2,0.5c-0.3,0.3-0.5,0.8-0.5,1.5h3.3
	c0-0.6-0.1-1.1-0.4-1.4C90.1,444.6,89.7,444.4,89.2,444.4z M94.8,444c0.2,0,0.5,0,0.7,0.1l-0.1,0.5c-0.2-0.1-0.5-0.1-0.7-0.1
	c-0.5,0-0.8,0.2-1.1,0.6c-0.3,0.4-0.4,0.9-0.4,1.5v2.9h-0.5v-5.3h0.4l0,1h0c0.2-0.4,0.5-0.7,0.7-0.8C94.2,444.1,94.5,444,94.8,444z
	 M100.6,449.4h-3.9v-7.1h3.9v0.5h-3.4v2.7h3.2v0.5h-3.2v3.1h3.4V449.4z M104.1,444.5h-1.2v4.9h-0.5v-4.9h-1v-0.3l1-0.2v-0.4
	c0-0.7,0.1-1.1,0.4-1.4c0.2-0.3,0.6-0.5,1.2-0.5c0.3,0,0.6,0,0.9,0.1l-0.1,0.4c-0.3-0.1-0.5-0.1-0.8-0.1c-0.4,0-0.6,0.1-0.8,0.3
	c-0.2,0.2-0.2,0.6-0.2,1.1v0.5h1.2V444.5z M107.1,444.5h-1.2v4.9h-0.5v-4.9h-1v-0.3l1-0.2v-0.4c0-0.7,0.1-1.1,0.4-1.4
	c0.2-0.3,0.6-0.5,1.2-0.5c0.3,0,0.6,0,0.9,0.1l-0.1,0.4c-0.3-0.1-0.5-0.1-0.8-0.1c-0.4,0-0.6,0.1-0.8,0.3c-0.2,0.2-0.2,0.6-0.2,1.1
	v0.5h1.2V444.5z M110.3,449.5c-0.8,0-1.4-0.2-1.8-0.7c-0.4-0.5-0.6-1.1-0.6-2c0-0.8,0.2-1.5,0.6-2c0.4-0.5,1-0.8,1.7-0.8
	c0.6,0,1.1,0.2,1.5,0.7c0.4,0.4,0.5,1,0.5,1.8v0.4h-3.8c0,0.7,0.2,1.3,0.5,1.7c0.3,0.4,0.8,0.6,1.4,0.6c0.3,0,0.6,0,0.8-0.1
	c0.2,0,0.5-0.1,0.9-0.3v0.4c-0.3,0.1-0.6,0.2-0.8,0.3S110.6,449.5,110.3,449.5z M110.1,444.4c-0.5,0-0.9,0.2-1.2,0.5
	c-0.3,0.3-0.5,0.8-0.5,1.5h3.3c0-0.6-0.1-1.1-0.4-1.4C111,444.6,110.6,444.4,110.1,444.4z M117.1,449.2c-0.3,0.2-0.8,0.2-1.3,0.2
	c-0.8,0-1.4-0.2-1.8-0.7s-0.6-1.1-0.6-2c0-0.9,0.2-1.6,0.7-2.1c0.4-0.5,1.1-0.7,1.8-0.7c0.5,0,0.9,0.1,1.3,0.2l-0.1,0.4
	c-0.5-0.2-0.9-0.2-1.2-0.2c-0.7,0-1.1,0.2-1.5,0.6c-0.3,0.4-0.5,1-0.5,1.7c0,0.7,0.2,1.3,0.5,1.7c0.3,0.4,0.8,0.6,1.4,0.6
	c0.5,0,0.9-0.1,1.3-0.3V449.2L117.1,449.2z M119.8,449.1c0.3,0,0.6,0,0.8-0.1v0.4c-0.2,0.1-0.5,0.1-0.8,0.1c-0.5,0-0.8-0.1-1-0.4
	c-0.2-0.3-0.3-0.6-0.3-1.2v-3.4h-0.8v-0.3l0.8-0.2l0.2-1.2h0.2v1.3h1.6v0.4h-1.6v3.4c0,0.4,0.1,0.7,0.2,0.9
	C119.2,449,119.5,449.1,119.8,449.1z M125,448c0,0.5-0.2,0.8-0.5,1.1c-0.4,0.3-0.9,0.4-1.5,0.4c-0.7,0-1.3-0.1-1.7-0.3v-0.5
	c0.5,0.3,1.1,0.4,1.7,0.4c0.5,0,0.9-0.1,1.2-0.3c0.3-0.2,0.4-0.4,0.4-0.7c0-0.3-0.1-0.5-0.3-0.7c-0.2-0.2-0.6-0.4-1.1-0.5
	c-0.5-0.2-0.9-0.4-1.1-0.5c-0.2-0.1-0.4-0.3-0.5-0.5c-0.1-0.2-0.2-0.4-0.2-0.6c0-0.4,0.2-0.7,0.5-0.9c0.3-0.2,0.8-0.3,1.4-0.3
	c0.6,0,1.1,0.1,1.6,0.3l-0.2,0.4c-0.5-0.2-1-0.3-1.5-0.3c-0.4,0-0.8,0.1-1,0.2c-0.3,0.1-0.4,0.3-0.4,0.6c0,0.3,0.1,0.5,0.3,0.7
	c0.2,0.2,0.6,0.4,1.2,0.6c0.5,0.2,0.8,0.3,1,0.5c0.2,0.1,0.4,0.3,0.5,0.5C125,447.6,125,447.8,125,448z"/>
<text transform="matrix(1 0 0 1 74 463.3857)" font-family="'OpenSans-Light'" font-size="10">Sketch   </text>
<text transform="matrix(1 0 0 1 74 477.3857)" font-family="'OpenSans-Light'" font-size="10">Axure     </text>
<text transform="matrix(1 0 0 1 74 491.3857)"><tspan x="0" y="0" font-family="'OpenSans-Light'" font-size="10">Invision</tspan><tspan x="0" y="12" font-family="'OpenSans-Light'" font-size="10">Articulate Storyline </tspan></text>
<text transform="matrix(1 0 0 1 74 534.6514)" font-family="'OpenSans'" font-size="10">Programming</text>
<text transform="matrix(1 0 0 1 74 551.6514)" font-family="'OpenSans-Light'" font-size="10">Python   </text>
<text transform="matrix(1 0 0 1 74 568.6514)" font-family="'OpenSans-Light'" font-size="10">ActionScript    </text>
<text transform="matrix(1 0 0 1 74 585.6514)" font-family="'OpenSans-Light'" font-size="10">HTML5   </text>
<text transform="matrix(1 0 0 1 74 602.6514)" font-family="'OpenSans-Light'" font-size="10">CSS</text>
<text transform="matrix(1 0 0 1 143.25 366.6377)" font-family="'OpenSans'" font-size="10">Data  </text>
<text transform="matrix(1 0 0 1 170.3887 366.6377)" font-family="'OpenSans-Light'" font-size="10">  </text>
<text transform="matrix(1 0 0 1 143.25 378.6377)" font-family="'OpenSans-Light'" font-size="10">Excel    </text>
<text transform="matrix(1 0 0 1 143.25 390.6377)" font-family="'OpenSans-Light'" font-size="10">STATA    </text>
<text transform="matrix(1 0 0 1 143.25 402.6377)"><tspan x="0" y="0" font-family="'OpenSans-Light'" font-size="10">SPSS</tspan><tspan x="0" y="12" font-family="'OpenSans-Light'" font-size="10">R</tspan></text>
<text transform="matrix(1 0 0 1 71.25 150.6816)" font-family="'OpenSans'" font-size="12">Education</text>
<text transform="matrix(1 0 0 1 71.25 162.6816)" font-family="'OpenSans-Light'" font-size="10">Carnegie Mellon University</text>
<text transform="matrix(1 0 0 1 71.25 174.6816)" font-family="'OpenSans-Light'" font-size="10">Class of 2017, QPA 3.5 /4.0</text>
<text transform="matrix(1 0 0 1 71.25 186.6816)" font-family="'OpenSans-Light'" font-size="10">BS  Decision Science</text>
<text transform="matrix(1 0 0 1 71.25 198.6816)" font-family="'OpenSans-Light'" font-size="10">Human Computer Interaction</text>
<text transform="matrix(1 0 0 1 71.25 210.6816)" font-family="'OpenSans-Light'" font-size="10">Minor: Learning Media</text>
<text transform="matrix(1 0 0 1 231 173.6816)" font-family="'OpenSans-Light'" font-size="10">Summer 2016, Washington, DC</text>
<text transform="matrix(1 0 0 1 231 163.1816)" font-family="'OpenSans'" font-size="10">Instructional Design Fellow, TechChange</text>
</svg>
